<svg width="124" height="40" viewBox="0 0 124 40" fill="none" xmlns="http://www.w3.org/2000/svg">
<rect width="124" height="40" rx="8" fill="#4E5FFF"/>
<path d="M0 34.4503V8C0 3.58172 3.58172 0 8 0H120L5.26491 38.245C2.67479 39.1084 0 37.1805 0 34.4503Z" fill="#384BFB"/>
<path d="M41.016 11.248V28H37.656V11.248H41.016ZM51.7037 14.512C53.2877 14.512 54.5677 15.016 55.5437 16.024C56.5197 17.016 57.0077 18.408 57.0077 20.2V28H53.6477V20.656C53.6477 19.6 53.3837 18.792 52.8557 18.232C52.3277 17.656 51.6077 17.368 50.6957 17.368C49.7677 17.368 49.0317 17.656 48.4877 18.232C47.9597 18.792 47.6957 19.6 47.6957 20.656V28H44.3357V14.704H47.6957V16.36C48.1437 15.784 48.7117 15.336 49.3997 15.016C50.1037 14.68 50.8717 14.512 51.7037 14.512ZM67.5709 14.512C69.1549 14.512 70.4349 15.016 71.4109 16.024C72.3869 17.016 72.8749 18.408 72.8749 20.2V28H69.5149V20.656C69.5149 19.6 69.2509 18.792 68.7229 18.232C68.1949 17.656 67.4749 17.368 66.5629 17.368C65.6349 17.368 64.8989 17.656 64.3549 18.232C63.8269 18.792 63.5629 19.6 63.5629 20.656V28H60.2029V14.704H63.5629V16.36C64.0109 15.784 64.5789 15.336 65.2669 15.016C65.9709 14.68 66.7389 14.512 67.5709 14.512ZM75.7341 15.112C75.8141 13.512 76.3741 12.28 77.4141 11.416C78.4701 10.536 79.8541 10.096 81.5661 10.096C82.7341 10.096 83.7341 10.304 84.5661 10.72C85.3981 11.12 86.0221 11.672 86.4381 12.376C86.8701 13.064 87.0861 13.848 87.0861 14.728C87.0861 15.736 86.8221 16.592 86.2941 17.296C85.7821 17.984 85.1661 18.448 84.4461 18.688V18.784C85.3741 19.072 86.0941 19.584 86.6061 20.32C87.1341 21.056 87.3981 22 87.3981 23.152C87.3981 24.112 87.1741 24.968 86.7261 25.72C86.2941 26.472 85.6461 27.064 84.7821 27.496C83.9341 27.912 82.9101 28.12 81.7101 28.12C79.9021 28.12 78.4301 27.664 77.2941 26.752C76.1581 25.84 75.5581 24.496 75.4941 22.72H78.7581C78.7901 23.504 79.0541 24.136 79.5501 24.616C80.0621 25.08 80.7581 25.312 81.6381 25.312C82.4541 25.312 83.0781 25.088 83.5101 24.64C83.9581 24.176 84.1821 23.584 84.1821 22.864C84.1821 21.904 83.8781 21.216 83.2701 20.8C82.6621 20.384 81.7181 20.176 80.4381 20.176H79.7421V17.416H80.4381C82.7101 17.416 83.8461 16.656 83.8461 15.136C83.8461 14.448 83.6381 13.912 83.2221 13.528C82.8221 13.144 82.2381 12.952 81.4701 12.952C80.7181 12.952 80.1341 13.16 79.7181 13.576C79.3181 13.976 79.0861 14.488 79.0221 15.112H75.7341Z" fill="white"/>
</svg>
