<svg width="13" height="13" viewBox="0 0 13 13" fill="none" xmlns="http://www.w3.org/2000/svg">
<path d="M6.25 0.25H1.5C1.3625 0.25 1.25 0.3625 1.25 0.5V5.25C1.25 5.3875 1.3625 5.5 1.5 5.5H6.25C6.3875 5.5 6.5 5.3875 6.5 5.25V0.5C6.5 0.3625 6.3875 0.25 6.25 0.25ZM5.4375 4.4375H2.3125V1.3125H5.4375V4.4375ZM12.5 0.25H7.75C7.6125 0.25 7.5 0.3625 7.5 0.5V5.25C7.5 5.3875 7.6125 5.5 7.75 5.5H12.5C12.6375 5.5 12.75 5.3875 12.75 5.25V0.5C12.75 0.3625 12.6375 0.25 12.5 0.25ZM11.6875 4.4375H8.5625V1.3125H11.6875V4.4375ZM12.5 6.5H7.75C7.6125 6.5 7.5 6.6125 7.5 6.75V11.5C7.5 11.6375 7.6125 11.75 7.75 11.75H12.5C12.6375 11.75 12.75 11.6375 12.75 11.5V6.75C12.75 6.6125 12.6375 6.5 12.5 6.5ZM11.6875 10.6875H8.5625V7.5625H11.6875V10.6875ZM5.625 9.125H3.625V7.125C3.625 7.05625 3.56875 7 3.5 7H2.75C2.68125 7 2.625 7.05625 2.625 7.125V9.125H0.625C0.55625 9.125 0.5 9.18125 0.5 9.25V10C0.5 10.0688 0.55625 10.125 0.625 10.125H2.625V12.125C2.625 12.1938 2.68125 12.25 2.75 12.25H3.5C3.56875 12.25 3.625 12.1938 3.625 12.125V10.125H5.625C5.69375 10.125 5.75 10.0688 5.75 10V9.25C5.75 9.18125 5.69375 9.125 5.625 9.125Z" fill="white"/>
</svg>
